<?xml version="1.0" standalone="no"?>
<!DOCTYPE svg PUBLIC "-//W3C//DTD SVG 20010904//EN"
 "http://www.w3.org/TR/2001/REC-SVG-20010904/DTD/svg10.dtd">
<svg version="1.0" xmlns="http://www.w3.org/2000/svg"
 width="512.000000pt" height="512.000000pt" viewBox="0 0 512.000000 512.000000"
 preserveAspectRatio="xMidYMid meet">
<metadata>
Created by potrace 1.14, written by Peter Selinger 2001-2017
</metadata>
<g transform="translate(0.000000,512.000000) scale(0.100000,-0.100000)"
fill="#000000" stroke="none">
<path d="M2728 4254 c-50 -27 -58 -57 -58 -233 0 -88 -4 -162 -8 -165 -7 -4
-9 -181 -2 -181 6 0 4 -1207 -2 -1211 -10 -7 -18 22 -33 120 -9 63 -15 88 -38
146 -62 163 -168 287 -297 349 -69 33 -83 36 -175 38 -105 3 -195 -16 -277
-58 -49 -25 -106 -75 -124 -110 -8 -17 -32 -36 -59 -48 -153 -68 -339 -272
-433 -474 -123 -266 -156 -629 -80 -907 17 -65 72 -169 116 -217 46 -52 137
-107 202 -123 28 -7 50 -17 50 -24 0 -22 70 -95 116 -122 66 -39 153 -63 253
-70 75 -5 89 -4 94 10 8 20 46 21 72 2 18 -13 17 -14 -8 -42 -46 -49 -68 -124
-70 -243 l-2 -106 720 -1 c396 -1 722 2 725 6 3 5 5 79 5 165 l0 157 -31 28
c-22 19 -83 44 -203 84 -95 31 -179 56 -186 56 -8 0 -18 6 -22 14 -14 22 -50
36 -97 36 l-46 0 -1 48 c0 26 -2 65 -4 87 -2 22 -6 70 -9 107 l-6 68 37 32
c138 122 221 234 297 400 104 226 140 437 141 808 0 262 -12 416 -50 671 -44
284 -94 460 -176 619 -27 52 -49 99 -49 106 0 15 -65 100 -116 152 -39 38 -48
42 -91 42 -26 -1 -60 -7 -75 -16z m110 -169 c59 -74 164 -317 221 -507 89
-302 126 -546 126 -843 0 -409 -71 -710 -219 -934 -43 -64 -145 -171 -164
-171 -9 0 -14 2457 -5 2473 8 13 21 7 41 -18z m-1352 -1734 c-14 -88 -28 -186
-31 -218 -3 -32 -8 -70 -11 -85 -11 -52 -12 -283 -3 -333 6 -27 11 -118 13
-202 3 -170 1 -174 -58 -94 -82 112 -112 209 -124 391 -14 211 32 414 128 567
42 67 102 144 108 138 2 -2 -8 -75 -22 -164z"/>
</g>
</svg>
